# xmcd
#
# Track frame offsets:
# 150
# 21865
# 45135
# 68020
# 88447
# 110255
# 129367
# 146082
# 166447
# 184102
# 204740
# 222322
# 238295
#
# Disc length: 3356 seconds
#
#
# Revision: 0
# Processed by: cddbd v1.5.1PL0 Copyright (c) Steve Scherf et al.
# Submitted via: FreeRIP 2.70 
#
DISCID=bd0d1a0d
DTITLE=Jonny Lang - Wander This World
DYEAR=1998
DGENRE=Blues
TTITLE0=Still Rainnin'
TTITLE1=Second Guessing
TTITLE2=I Am
TTITLE3=Breakin' Me
TTITLE4=Wander This World
TTITLE5=Walking Away
TTITLE6=The Levee
TTITLE7=Angel Of Mercy
TTITLE8=Right Back
TTITLE9=Leaving To Stay
TTITLE10=Before You Hit The Ground
TTITLE11=Cherry Red Wine
TTITLE12=If This Is Love
EXTD=
EXTT0=
EXTT1=
EXTT2=
EXTT3=
EXTT4=
EXTT5=
EXTT6=
EXTT7=
EXTT8=
EXTT9=
EXTT10=
EXTT11=
EXTT12=
PLAYORDER=
